<mxfile host="app.diagrams.net" modified="2023-10-04T13:57:51.736Z" agent="Mozilla/5.0 (Windows NT 10.0; Win64; x64) AppleWebKit/537.36 (KHTML, like Gecko) Chrome/117.0.0.0 Safari/537.36" etag="e82QVurXdTaWLmMKOE_d" version="22.0.2" type="github">
  <diagram id="C5RBs43oDa-KdzZeNtuy" name="Page-1">
    <mxGraphModel dx="1035" dy="562" grid="1" gridSize="10" guides="1" tooltips="1" connect="1" arrows="1" fold="1" page="1" pageScale="1" pageWidth="827" pageHeight="1169" math="0" shadow="0">
      <root>
        <mxCell id="WIyWlLk6GJQsqaUBKTNV-0" />
        <mxCell id="WIyWlLk6GJQsqaUBKTNV-1" parent="WIyWlLk6GJQsqaUBKTNV-0" />
        <mxCell id="mPWh8ruG9UMkiWwDOitL-4" style="edgeStyle=orthogonalEdgeStyle;rounded=0;orthogonalLoop=1;jettySize=auto;html=1;entryX=0;entryY=0.5;entryDx=0;entryDy=0;" edge="1" parent="WIyWlLk6GJQsqaUBKTNV-1" source="mPWh8ruG9UMkiWwDOitL-0" target="mPWh8ruG9UMkiWwDOitL-3">
          <mxGeometry relative="1" as="geometry" />
        </mxCell>
        <mxCell id="mPWh8ruG9UMkiWwDOitL-0" value="&lt;h1&gt;Eng. Software&lt;/h1&gt;" style="rounded=0;whiteSpace=wrap;html=1;" vertex="1" parent="WIyWlLk6GJQsqaUBKTNV-1">
          <mxGeometry x="280" y="280" width="120" height="60" as="geometry" />
        </mxCell>
        <mxCell id="mPWh8ruG9UMkiWwDOitL-12" style="edgeStyle=orthogonalEdgeStyle;rounded=0;orthogonalLoop=1;jettySize=auto;html=1;exitX=1;exitY=0;exitDx=0;exitDy=0;entryX=0;entryY=0.5;entryDx=0;entryDy=0;" edge="1" parent="WIyWlLk6GJQsqaUBKTNV-1" source="mPWh8ruG9UMkiWwDOitL-3" target="mPWh8ruG9UMkiWwDOitL-9">
          <mxGeometry relative="1" as="geometry">
            <Array as="points">
              <mxPoint x="610" y="282" />
              <mxPoint x="610" y="235" />
            </Array>
          </mxGeometry>
        </mxCell>
        <mxCell id="mPWh8ruG9UMkiWwDOitL-13" style="edgeStyle=orthogonalEdgeStyle;rounded=0;orthogonalLoop=1;jettySize=auto;html=1;entryX=0;entryY=0.5;entryDx=0;entryDy=0;" edge="1" parent="WIyWlLk6GJQsqaUBKTNV-1" source="mPWh8ruG9UMkiWwDOitL-3" target="mPWh8ruG9UMkiWwDOitL-10">
          <mxGeometry relative="1" as="geometry" />
        </mxCell>
        <mxCell id="mPWh8ruG9UMkiWwDOitL-14" style="edgeStyle=orthogonalEdgeStyle;rounded=0;orthogonalLoop=1;jettySize=auto;html=1;entryX=0;entryY=0.5;entryDx=0;entryDy=0;exitX=1;exitY=1;exitDx=0;exitDy=0;" edge="1" parent="WIyWlLk6GJQsqaUBKTNV-1" source="mPWh8ruG9UMkiWwDOitL-3" target="mPWh8ruG9UMkiWwDOitL-11">
          <mxGeometry relative="1" as="geometry">
            <mxPoint x="610" y="352" as="sourcePoint" />
            <Array as="points">
              <mxPoint x="560" y="338" />
              <mxPoint x="560" y="385" />
            </Array>
          </mxGeometry>
        </mxCell>
        <mxCell id="mPWh8ruG9UMkiWwDOitL-3" value="&lt;h1&gt;BD&lt;/h1&gt;" style="ellipse;whiteSpace=wrap;html=1;" vertex="1" parent="WIyWlLk6GJQsqaUBKTNV-1">
          <mxGeometry x="460" y="270" width="120" height="80" as="geometry" />
        </mxCell>
        <mxCell id="mPWh8ruG9UMkiWwDOitL-9" value="&lt;font style=&quot;font-size: 18px;&quot;&gt;Arquitetura&lt;/font&gt;" style="text;html=1;strokeColor=#b85450;fillColor=#f8cecc;align=center;verticalAlign=middle;whiteSpace=wrap;rounded=0;" vertex="1" parent="WIyWlLk6GJQsqaUBKTNV-1">
          <mxGeometry x="690" y="220" width="100" height="30" as="geometry" />
        </mxCell>
        <mxCell id="mPWh8ruG9UMkiWwDOitL-10" value="&lt;font style=&quot;font-size: 18px;&quot;&gt;Modelagem&lt;/font&gt;" style="text;html=1;strokeColor=#b85450;fillColor=#f8cecc;align=center;verticalAlign=middle;whiteSpace=wrap;rounded=0;" vertex="1" parent="WIyWlLk6GJQsqaUBKTNV-1">
          <mxGeometry x="690" y="295" width="100" height="30" as="geometry" />
        </mxCell>
        <mxCell id="mPWh8ruG9UMkiWwDOitL-11" value="&lt;font style=&quot;font-size: 18px;&quot;&gt;Administração&lt;/font&gt;" style="text;html=1;strokeColor=#b85450;fillColor=#f8cecc;align=center;verticalAlign=middle;whiteSpace=wrap;rounded=0;" vertex="1" parent="WIyWlLk6GJQsqaUBKTNV-1">
          <mxGeometry x="690" y="370" width="120" height="30" as="geometry" />
        </mxCell>
      </root>
    </mxGraphModel>
  </diagram>
</mxfile>
